<svg xmlns="http://www.w3.org/2000/svg" xmlns:xlink="http://www.w3.org/1999/xlink" width="100.0" height="100.0" viewBox="-51.23032682800001 -30.034281028 0.0006073560000103839 0.0008053559999900983" preserveAspectRatio="xMinYMin meet"><g transform="matrix(1,0,0,-1,0,-60.067756700000004)"><path fill-rule="evenodd" fill="#66cc99" stroke="#555555" stroke-width="1.6107119999801965e-05" opacity="0.6" d="M -51.2298412,-30.03353870000001 L -51.2298154,-30.033540599999984 L -51.2298126,-30.0335408 L -51.2298129,-30.033544300000003 L -51.2297808,-30.033546699999988 L -51.2297805,-30.033544400000007 L -51.2297758,-30.0335447 L -51.2297562,-30.0335462 L -51.2297493,-30.033546700000002 L -51.2297572,-30.033626999999992 L -51.22975770000001,-30.033632 L -51.2298302,-30.03362630000001 L -51.2298538,-30.033865000000006 L -51.2298442,-30.0338658 L -51.2298477,-30.033909500000004 L -51.2298412,-30.03390990000001 L -51.2298357,-30.03390249999999 L -51.2298133,-30.033912799999996 L -51.2298168,-30.0339188 L -51.2297959,-30.0339406 L -51.2297906,-30.033938999999993 L -51.2297826,-30.0339586 L -51.2297866,-30.033959199999998 L -51.2297957,-30.034019000000004 L -51.2297902,-30.034021400000004 L -51.229800700000006,-30.0340417 L -51.2298073,-30.0340393 L -51.2298344,-30.034053999999994 L -51.2298319,-30.034065200000004 L -51.2298509,-30.0340704 L -51.2298558,-30.034059600000003 L -51.2298704,-30.0340585 L -51.2298741,-30.034097 L -51.2298921,-30.034095599999993 L -51.2298985,-30.03416019999999 L -51.2298609,-30.034163 L -51.2298683,-30.03423859999999 L -51.2299531,-30.0342322 L -51.2299549,-30.0342512 L -51.2301846,-30.034234 L -51.2301825,-30.0342134 L -51.2302643,-30.03420729999999 L -51.2302569,-30.034132200000002 L -51.2302241,-30.034134599999994 L -51.2302178,-30.0340702 L -51.2302266,-30.0340694 L -51.2302229,-30.034030399999995 L -51.2302285,-30.03403000000001 L -51.230236500000004,-30.0340294 L -51.2302396,-30.034038299999995 L -51.230256600000004,-30.034034099999996 L -51.2302532,-30.0340242 L -51.230280900000004,-30.034001600000003 L -51.2302902,-30.0340033 L -51.23029700000001,-30.033981200000003 L -51.2302871,-30.0339784 L -51.2302841,-30.033920999999996 L -51.2302898,-30.033919600000008 L -51.2302806,-30.0338995 L -51.2302726,-30.033902400000002 L -51.2302486,-30.0338856 L -51.2302511,-30.033877399999994 L -51.2302264,-30.033868700000003 L -51.2302198,-30.033880699999997 L -51.2302148,-30.033878999999995 L -51.230213000000006,-30.033838099999997 L -51.2302054,-30.033838700000004 L -51.2301818,-30.0336 L -51.2302499,-30.033594899999997 L -51.2302471,-30.033566499999996 L -51.2302452,-30.033566699999998 L -51.2302423,-30.0335373 L -51.2302448,-30.033537100000004 L -51.2302419,-30.0335085 L -51.2302051,-30.0335112 L -51.2302053,-30.033513599999992 L -51.2301756,-30.0335159 L -51.2301752,-30.033512399999992 L -51.23014450000001,-30.033514699999994 L -51.2301449,-30.033518200000003 L -51.2300854,-30.033522700000002 L -51.2300843,-30.033511399999984 L -51.2300823,-30.0335115 L -51.2300635,-30.033512799999997 L -51.2300628,-30.033505500000008 L -51.2300334,-30.0335078 L -51.2300336,-30.03350989999999 L -51.2300339,-30.033513 L -51.22995280000001,-30.033519099999996 L -51.229952600000004,-30.033516999999996 L -51.2299524,-30.0335151 L -51.2299225,-30.03351729999999 L -51.2299228,-30.033520499999998 L -51.2298995,-30.03352229999999 L -51.2299009,-30.033537 L -51.2298443,-30.033541300000003 L -51.229844,-30.0335385 L -51.2298412,-30.03353870000001 z" /></g></svg>